<svg width="457" height="295" viewBox="0 0 457 295" fill="none" xmlns="http://www.w3.org/2000/svg">
<g filter="url(#filter0_d_14_16)">
<path d="M60.3227 140.064V151.149H46.9659V131.437H33.3226V249.445H46.9659V206.728H60.4659V240.556C60.5001 244.599 59.9511 248.607 58.8545 252.32C57.834 255.773 56.3761 258.912 54.5574 261.575C52.718 264.262 50.5256 266.378 48.1118 267.796C45.5723 269.276 42.8604 270.022 40.1263 269.993C37.4268 270.027 34.7493 269.281 32.2483 267.796C29.8314 266.361 27.6358 264.234 25.7908 261.54C23.9459 258.846 22.4888 255.64 21.5056 252.111C20.4786 248.372 19.9675 244.375 20.0016 240.347V140.064C19.9816 136.089 20.4924 132.147 21.5056 128.457C22.4847 124.92 23.9191 121.69 25.7311 118.941C27.5476 116.157 29.7108 113.903 32.1051 112.301C34.5961 110.758 37.2771 109.975 39.9831 110.001C42.7235 109.98 45.4389 110.762 47.9685 112.301C50.3826 113.814 52.5719 115.998 54.4142 118.732C56.2363 121.49 57.6932 124.716 58.7112 128.248C59.8128 131.977 60.3619 136.004 60.3227 140.064V140.064Z" fill="#476198"/>
</g>
<g filter="url(#filter1_d_14_16)">
<path d="M97.7453 269.993C94.2266 270.114 90.8125 268.24 88.22 264.764C86.9163 263.028 85.8859 260.899 85.1997 258.525C84.5135 256.152 84.1879 253.589 84.2452 251.013V131.438H70.6378V111.779H111.424V131.438H97.7453V269.993ZM161.557 141.424V197.212C161.586 201.08 161.048 204.913 159.981 208.454C158.957 211.931 157.487 215.09 155.649 217.76C153.808 220.45 151.649 222.629 149.275 224.191C146.862 225.824 144.234 226.662 141.576 226.649H134.736V269.156H121.236V111.779H141.576C144.225 111.737 146.85 112.521 149.275 114.079C151.651 115.588 153.813 117.734 155.649 120.406C157.496 123.105 158.967 126.301 159.981 129.817C161.052 133.485 161.589 137.438 161.557 141.424ZM148.236 206.937V131.438H134.736V206.937H148.236ZM191.744 269.156H212.048V111.779H198.548V249.445H185.048V111.779H171.727V239.668C171.713 243.551 172.249 247.396 173.302 250.961C174.343 254.456 175.812 257.646 177.635 260.373C179.458 263.094 181.622 265.277 184.009 266.803C186.445 268.374 189.081 269.176 191.744 269.156Z" fill="#E0B66C"/>
</g>
<g filter="url(#filter2_d_14_16)">
<path d="M222.437 111.518H235.687V150.941C235.594 155.766 236.294 160.552 237.728 164.901C239.124 168.718 240.664 170.652 242.383 170.652H249.187V111.518H262.687V170.862H269.49C271.209 170.862 272.749 168.927 274.11 165.11C275.577 160.777 276.29 155.982 276.187 151.15V111.78H289.508V151.359C289.516 155.107 289.313 158.849 288.899 162.548C288.561 165.756 287.872 168.863 286.858 171.75C285.927 174.359 284.512 176.534 282.775 178.025C280.705 179.703 278.376 180.584 276.008 180.587C278.385 180.595 280.718 181.514 282.775 183.253C284.516 184.824 285.937 187.044 286.894 189.684C287.913 192.55 288.603 195.641 288.935 198.834C289.346 202.533 289.549 206.275 289.543 210.023V269.157H276.151V210.075C276.259 205.293 275.545 200.548 274.074 196.272C272.737 192.577 271.209 190.73 269.49 190.73H262.687V269.157H249.187V190.312H242.383C240.664 190.312 239.124 192.194 237.728 195.958C236.282 200.264 235.581 205.021 235.687 209.814V269.157H222.437V210.075C222.412 206.327 222.616 202.582 223.046 198.886C223.39 195.667 224.104 192.556 225.159 189.684C226.138 187.098 227.54 184.906 229.241 183.305C231.164 181.469 233.391 180.422 235.687 180.273C233.352 180.279 231.056 179.396 229.026 177.711C227.325 176.188 225.939 174.019 225.015 171.437C224.001 168.549 223.312 165.442 222.974 162.235C222.544 158.539 222.34 154.794 222.366 151.046V111.414L222.437 111.518ZM319.659 269.157H339.998V111.78H326.498V249.446H312.998V111.78H299.677V239.668C299.663 243.551 300.2 247.397 301.253 250.962C302.294 254.457 303.762 257.647 305.586 260.373C307.408 263.095 309.572 265.278 311.96 266.804C314.382 268.38 317.007 269.182 319.659 269.157Z" fill="#476198"/>
</g>
<g filter="url(#filter3_f_14_16)">
<rect width="37" height="60" rx="18.5" transform="matrix(-1 0 0 1 397 60)" fill="#FEFEFE" fill-opacity="0.8"/>
</g>
<g filter="url(#filter4_d_14_16)">
<path fill-rule="evenodd" clip-rule="evenodd" d="M364.337 63.4874C367.242 65.4417 369.893 67.777 372.221 70.4353C374.855 73.0337 380.378 77.7409 378.597 82.1092C377.18 85.6302 371.658 88.4734 367.697 91.2036C364.627 93.3125 360.013 94.9694 360.267 95.4966C361.248 96.4569 367.534 93.2183 369.351 92.3145C370.295 91.8438 372.348 91.5802 369.623 93.3878C366.898 95.1953 364.173 96.5887 363.646 97.7749C362.266 100.505 373.002 91.2601 381.486 90.0174C382.449 89.8856 382.43 89.6596 383.048 89.9044C386.99 91.5237 388.08 106.85 388.153 114.834C388.153 120.614 387.499 123.363 391.423 113.177C392.612 109.821 393.559 106.379 394.257 102.878C395.351 97.6755 395.182 92.2733 393.766 87.1554C393.294 85.5173 391.859 84.4064 391.95 84.0298C392.041 83.6532 393.439 83.0507 394.675 81.9963C395.258 81.4529 395.702 80.7668 395.965 80.0004C396.34 79.6828 396.687 79.3298 397 78.946C396.439 78.6546 395.802 78.5557 395.183 78.6635C394.548 78.7953 394.275 75.9898 389.733 77.9857C388.916 78.3435 387.245 74.8978 386.663 73.7304C383.484 67.2156 372.639 62.8661 366.68 60.9832C362.974 59.8534 355.072 58.7425 364.337 63.4874Z" fill="#476198"/>
</g>
<path fill-rule="evenodd" clip-rule="evenodd" d="M402.889 31.6593C404.81 32.3504 406.63 33.2786 408.303 34.4206C410.177 35.4854 413.924 37.3443 413.418 39.8349C413.024 41.8923 410.177 44.0942 408.209 46.0613C406.692 47.5773 404.219 48.9851 404.462 49.2738C405.156 49.6709 408.359 47.1623 409.296 46.4584C409.783 46.0974 410.945 45.7004 409.596 46.9998C408.247 48.2993 406.804 49.4002 406.673 50.086C406.205 51.7283 411.282 45.4477 416.041 43.7332C416.565 43.5347 416.528 43.4264 416.921 43.4805C419.394 43.8595 421.905 51.9449 422.935 56.2583C423.666 59.3444 423.61 60.9145 424.622 54.9588C424.899 53.0094 425.024 51.0427 424.996 49.0753C424.954 46.1931 424.189 43.3636 422.767 40.8275C422.28 40.0154 421.324 39.5822 421.324 39.3837C421.324 39.1852 422.055 38.6799 422.636 37.958C422.909 37.5898 423.083 37.1618 423.141 36.7127C423.322 36.5003 423.479 36.2705 423.61 36.0269C423.269 35.9206 422.902 35.9206 422.561 36.0269C422.223 36.1712 421.718 34.6913 419.301 36.3337C418.87 36.6405 417.427 34.9801 416.996 34.4206C414.355 31.3164 407.629 30.3058 403.882 30.035C401.652 29.8726 396.95 30.2516 402.889 31.6593Z" fill="#E0B66C"/>
<defs>
<filter id="filter0_d_14_16" x="0" y="90" width="80.4674" height="199.994" filterUnits="userSpaceOnUse" color-interpolation-filters="sRGB">
<feFlood flood-opacity="0" result="BackgroundImageFix"/>
<feColorMatrix in="SourceAlpha" type="matrix" values="0 0 0 0 0 0 0 0 0 0 0 0 0 0 0 0 0 0 127 0" result="hardAlpha"/>
<feOffset/>
<feGaussianBlur stdDeviation="10"/>
<feComposite in2="hardAlpha" operator="out"/>
<feColorMatrix type="matrix" values="0 0 0 0 1 0 0 0 0 1 0 0 0 0 1 0 0 0 0.2 0"/>
<feBlend mode="normal" in2="BackgroundImageFix" result="effect1_dropShadow_14_16"/>
<feBlend mode="normal" in="SourceGraphic" in2="effect1_dropShadow_14_16" result="shape"/>
</filter>
<filter id="filter1_d_14_16" x="45.6378" y="86.7771" width="191.41" height="208.221" filterUnits="userSpaceOnUse" color-interpolation-filters="sRGB">
<feFlood flood-opacity="0" result="BackgroundImageFix"/>
<feColorMatrix in="SourceAlpha" type="matrix" values="0 0 0 0 0 0 0 0 0 0 0 0 0 0 0 0 0 0 127 0" result="hardAlpha"/>
<feOffset/>
<feGaussianBlur stdDeviation="12.5"/>
<feComposite in2="hardAlpha" operator="out"/>
<feColorMatrix type="matrix" values="0 0 0 0 0.278056 0 0 0 0 0.379167 0 0 0 0 0.595833 0 0 0 0.2 0"/>
<feBlend mode="normal" in2="BackgroundImageFix" result="effect1_dropShadow_14_16"/>
<feBlend mode="normal" in="SourceGraphic" in2="effect1_dropShadow_14_16" result="shape"/>
</filter>
<filter id="filter2_d_14_16" x="202.363" y="91.4136" width="157.635" height="197.744" filterUnits="userSpaceOnUse" color-interpolation-filters="sRGB">
<feFlood flood-opacity="0" result="BackgroundImageFix"/>
<feColorMatrix in="SourceAlpha" type="matrix" values="0 0 0 0 0 0 0 0 0 0 0 0 0 0 0 0 0 0 127 0" result="hardAlpha"/>
<feOffset/>
<feGaussianBlur stdDeviation="10"/>
<feComposite in2="hardAlpha" operator="out"/>
<feColorMatrix type="matrix" values="0 0 0 0 1 0 0 0 0 1 0 0 0 0 1 0 0 0 0.2 0"/>
<feBlend mode="normal" in2="BackgroundImageFix" result="effect1_dropShadow_14_16"/>
<feBlend mode="normal" in="SourceGraphic" in2="effect1_dropShadow_14_16" result="shape"/>
</filter>
<filter id="filter3_f_14_16" x="300" y="0" width="157" height="180" filterUnits="userSpaceOnUse" color-interpolation-filters="sRGB">
<feFlood flood-opacity="0" result="BackgroundImageFix"/>
<feBlend mode="normal" in="SourceGraphic" in2="BackgroundImageFix" result="shape"/>
<feGaussianBlur stdDeviation="30" result="effect1_foregroundBlur_14_16"/>
</filter>
<filter id="filter4_d_14_16" x="335" y="35" width="87" height="110" filterUnits="userSpaceOnUse" color-interpolation-filters="sRGB">
<feFlood flood-opacity="0" result="BackgroundImageFix"/>
<feColorMatrix in="SourceAlpha" type="matrix" values="0 0 0 0 0 0 0 0 0 0 0 0 0 0 0 0 0 0 127 0" result="hardAlpha"/>
<feOffset/>
<feGaussianBlur stdDeviation="12.5"/>
<feComposite in2="hardAlpha" operator="out"/>
<feColorMatrix type="matrix" values="0 0 0 0 1 0 0 0 0 1 0 0 0 0 1 0 0 0 0.25 0"/>
<feBlend mode="normal" in2="BackgroundImageFix" result="effect1_dropShadow_14_16"/>
<feBlend mode="normal" in="SourceGraphic" in2="effect1_dropShadow_14_16" result="shape"/>
</filter>
</defs>
</svg>
